# xmcd
#
# Track frame offsets: 
#        150
#        22775
#        36112
#        48409
#        62619
#        76182
#        91668
#        104422
#        120558
#        132786
#        147123
#        158831
#        172113
#        185869
#
# Disc length: 2683 seconds
#
# Revision: 0
# Processed by: cddbd v1.5.2PL0 Copyright (c) Steve Scherf et al.
# Submitted via: ExactAudioCopyFreeDBPlugin 1.0
#
DISCID=af0a790e
DTITLE=Frank Sinatra - Hello Frank - Tea For Two
DYEAR=2015
DGENRE=Blues
TTITLE0=LET'S GET AWAY FROM IT ALL
TTITLE1=ALL NOTHING AT ALL
TTITLE2=WHY WAS I BORN
TTITLE3=DEVIL MAY CARE
TTITLE4=FROM HERE TO ETERNITY
TTITLE5=I COULDN'T SLEEP A WINK LAST NIGHT
TTITLE6=S'POSIN
TTITLE7=IT EASY TO REMEMBER
TTITLE8=TEA FOR TWO
TTITLE9=LOVE ME AS I AM
TTITLE10=LONG AGO AND FAR AWAY
TTITLE11=IT'S FUNNY TO EVERYONE BUT ME
TTITLE12=WHERE IS MY BESS
TTITLE13=MIGHTLY LIKE ROSE
EXTD=
EXTT0=
EXTT1=
EXTT2=
EXTT3=
EXTT4=
EXTT5=
EXTT6=
EXTT7=
EXTT8=
EXTT9=
EXTT10=
EXTT11=
EXTT12=
EXTT13=
PLAYORDER=
